<svg id="图层_1" data-name="图层 1" xmlns="http://www.w3.org/2000/svg" viewBox="0 0 601.78 347.95"><defs><style>.cls-1,.cls-2{fill:#fff;}.cls-2{fill-rule:evenodd;}</style></defs><title>首页页脚-学院logo</title><path class="cls-1" d="M0,345.61l1-1.2a6,6,0,0,0,4.31,2c2.11,0,3.39-1.07,3.39-2.63s-1.15-2.21-2.63-2.87l-2.23-1C2.41,339.29.7,338.24.7,336s2-4,4.76-4A6.27,6.27,0,0,1,10,333.88L9,335a4.91,4.91,0,0,0-3.54-1.48c-1.81,0-3,.91-3,2.36S3.8,338.05,5,338.56l2.23.94c1.79.78,3.18,1.82,3.18,4.13S8.39,348,5.23,348A7.11,7.11,0,0,1,0,345.61Z" transform="translate(0.04)"/><path class="cls-1" d="M16.86,339.93c0-4.95,2.87-8,6.76-8a5.63,5.63,0,0,1,4.19,1.87l-1,1.14a4.2,4.2,0,0,0-3.2-1.48c-3,0-5,2.45-5,6.41s1.9,6.48,4.93,6.48a4.66,4.66,0,0,0,3.64-1.77l1,1.1a5.84,5.84,0,0,1-4.7,2.21C19.66,347.91,16.86,344.9,16.86,339.93Z" transform="translate(0.04)"/><path class="cls-1" d="M35.33,332.22h1.75v6.53h7.43v-6.53h1.75v15.41H44.51v-7.37H37.08v7.37H35.33Z" transform="translate(0.04)"/><path class="cls-1" d="M53.84,339.86c0-4.9,2.69-7.91,6.52-7.91s6.51,3,6.51,7.91-2.69,8.05-6.51,8.05S53.84,344.79,53.84,339.86Zm11.24,0c0-3.93-1.87-6.38-4.72-6.38s-4.73,2.45-4.73,6.38,1.87,6.51,4.73,6.51,4.72-2.55,4.72-6.51Z" transform="translate(0.04)"/><path class="cls-1" d="M73.57,339.86c0-4.9,2.69-7.91,6.52-7.91s6.51,3,6.51,7.91-2.69,8.05-6.51,8.05S73.57,344.79,73.57,339.86Zm11.24,0c0-3.93-1.87-6.38-4.72-6.38s-4.73,2.45-4.73,6.38,1.87,6.51,4.73,6.51S84.81,343.82,84.81,339.86Z" transform="translate(0.04)"/><path class="cls-1" d="M94.21,332.22H96v13.94h6.82v1.47H94.21Z" transform="translate(0.04)"/><path class="cls-1" d="M117.72,339.86c0-4.9,2.7-7.91,6.53-7.91s6.51,3,6.51,7.91-2.7,8.05-6.51,8.05S117.72,344.79,117.72,339.86Zm11.25,0c0-3.93-1.88-6.38-4.72-6.38s-4.74,2.45-4.74,6.38,1.88,6.51,4.74,6.51S129,343.82,129,339.86Z" transform="translate(0.04)"/><path class="cls-1" d="M138.36,332.22h8.76v1.47h-7v5.43h5.93v1.47h-5.94v7h-1.75Z" transform="translate(0.04)"/><path class="cls-1" d="M163,332.22h3.79c4.74,0,7.2,2.8,7.2,7.64s-2.46,7.77-7.11,7.77H163Zm3.65,14c3.74,0,5.55-2.38,5.55-6.32s-1.81-6.21-5.55-6.21h-1.9v12.53Z" transform="translate(0.04)"/><path class="cls-1" d="M181.57,332.22h1.74v15.41h-1.74Z" transform="translate(0.04)"/><path class="cls-1" d="M190.92,339.93c0-4.95,2.92-8,7-8a6,6,0,0,1,4.4,1.87l-1,1.14a4.46,4.46,0,0,0-3.39-1.48c-3.2,0-5.25,2.45-5.25,6.41s1.9,6.48,5.25,6.48a4.46,4.46,0,0,0,2.92-1v-4.21h-3.34v-1.45h5v6.4a6.49,6.49,0,0,1-4.72,1.77C193.76,347.91,190.92,344.9,190.92,339.93Z" transform="translate(0.04)"/><path class="cls-1" d="M210.44,332.22h1.77v15.41h-1.74Z" transform="translate(0.04)"/><path class="cls-1" d="M223.91,333.69h-4.7v-1.48h11.18v1.48h-4.72v13.93h-1.76Z" transform="translate(0.04)"/><path class="cls-1" d="M239.68,332.22h1.92l5.28,15.41H245l-1.54-4.84h-5.77l-1.51,4.84h-1.75Zm3.37,9.18-.8-2.5c-.59-1.75-1.07-3.42-1.6-5.23h-.08c-.51,1.81-1,3.48-1.58,5.23l-.8,2.5Z" transform="translate(0.04)"/><path class="cls-1" d="M253.35,332.22h1.75v13.94h6.82v1.47h-8.57Z" transform="translate(0.04)"/><path class="cls-1" d="M277.77,332.22h2.15l3,8.44c.4,1.06.76,2.17,1.14,3.27h.1c.38-1.1.72-2.21,1.08-3.27l3-8.44h2.15v15.41h-1.62v-8.94c0-1.31.12-3.12.21-4.47h-.09l-1.22,3.5-3,8.29h-1.22l-3-8.29-1.22-3.5h-.09c.09,1.35.21,3.16.21,4.47v8.9h-1.58Z" transform="translate(0.04)"/><path class="cls-1" d="M298.91,332.22h8.78v1.47h-7v5.07h5.92v1.47h-5.92v5.92H308v1.47h-9Z" transform="translate(0.04)"/><path class="cls-1" d="M315.42,332.22h3.79c4.74,0,7.2,2.8,7.2,7.64s-2.46,7.77-7.11,7.77h-3.88Zm3.65,14c3.74,0,5.55-2.38,5.55-6.32s-1.81-6.21-5.55-6.21h-1.86v12.53Z" transform="translate(0.04)"/><path class="cls-1" d="M334,332.22h1.74v15.41H334Z" transform="translate(0.04)"/><path class="cls-1" d="M347.49,332.22h1.92l5.28,15.41h-1.85l-1.54-4.84h-5.77L344,347.63h-1.77Zm3.37,9.18-.8-2.5c-.59-1.75-1.07-3.42-1.6-5.23h-.08c-.51,1.81-1,3.48-1.58,5.23l-.8,2.5Z" transform="translate(0.04)"/><path class="cls-1" d="M373.29,332.22h1.92l5.29,15.41h-1.86l-1.53-4.84h-5.77l-1.56,4.84H368Zm3.36,9.18-.8-2.5c-.59-1.75-1.07-3.42-1.6-5.23h0c-.51,1.81-1,3.48-1.58,5.23l-.8,2.5Z" transform="translate(0.04)"/><path class="cls-1" d="M387,332.22h1.79l5.83,10,1.69,3.16h.1c-.12-1.54-.25-3.22-.25-4.78v-8.36h1.66v15.41H396l-5.79-10-1.68-3.13h-.11c.09,1.53.23,3.11.23,4.69v8.44H387Z" transform="translate(0.04)"/><path class="cls-1" d="M406.28,332.22h3.79c4.74,0,7.2,2.8,7.2,7.64s-2.46,7.77-7.11,7.77h-3.88Zm3.64,14c3.75,0,5.56-2.38,5.56-6.32s-1.81-6.21-5.56-6.21H408v12.53Z" transform="translate(0.04)"/><path class="cls-1" d="M433.78,332.22h3.79c4.74,0,7.2,2.8,7.2,7.64s-2.46,7.77-7.11,7.77h-3.88Zm3.64,14c3.75,0,5.56-2.38,5.56-6.32s-1.77-6.21-5.56-6.21h-1.89v12.53Z" transform="translate(0.04)"/><path class="cls-1" d="M452.37,332.22h8.78v1.47h-7v5.07h5.92v1.47h-5.92v5.92h7.27v1.47h-9Z" transform="translate(0.04)"/><path class="cls-1" d="M467.77,345.61l1-1.2a6,6,0,0,0,4.32,2c2.1,0,3.38-1.07,3.38-2.63s-1.15-2.21-2.63-2.87l-2.23-1c-1.43-.62-3.14-1.67-3.14-3.92s2-4,4.76-4a6.27,6.27,0,0,1,4.49,1.89l-1,1.12a4.87,4.87,0,0,0-3.54-1.48c-1.81,0-3,.91-3,2.36s1.39,2.17,2.57,2.68l2.23.94c1.79.78,3.18,1.82,3.18,4.13s-2,4.32-5.16,4.32A7.13,7.13,0,0,1,467.77,345.61Z" transform="translate(0.04)"/><path class="cls-1" d="M485.54,332.22h1.75v15.41h-1.75Z" transform="translate(0.04)"/><path class="cls-1" d="M494.89,339.93c0-4.95,2.92-8,7-8a6,6,0,0,1,4.4,1.87l-1,1.14a4.46,4.46,0,0,0-3.39-1.48c-3.2,0-5.24,2.45-5.24,6.41s1.89,6.48,5.24,6.48a4.48,4.48,0,0,0,2.93-1v-4.21h-3.37v-1.45h5v6.4a6.49,6.49,0,0,1-4.72,1.77C497.73,347.91,494.89,344.9,494.89,339.93Z" transform="translate(0.04)"/><path class="cls-1" d="M514.41,332.22h1.8l5.83,10,1.68,3.16h.11c-.13-1.54-.25-3.22-.25-4.78v-8.36h1.63v15.41H523.4l-5.79-10-1.69-3.13h-.1c.08,1.53.23,3.11.23,4.69v8.44h-1.64Z" transform="translate(0.04)"/><path class="cls-1" d="M545.87,332.22h1.91l5.29,15.41h-1.86l-1.53-4.84h-5.77l-1.56,4.84H540.6Zm3.36,9.18-.8-2.5c-.59-1.75-1.07-3.42-1.6-5.23h-.08c-.51,1.81-1,3.48-1.58,5.23l-.8,2.5Z" transform="translate(0.04)"/><path class="cls-1" d="M564.21,341h-2.88v6.65h-1.75V332.22h4.63c3.11,0,5.32,1.14,5.32,4.25a4.16,4.16,0,0,1-3.58,4.34l4,6.82h-2Zm-.19-1.41c2.49,0,3.86-1,3.86-3.1s-1.37-2.82-3.86-2.82h-2.69v5.92Z" transform="translate(0.04)"/><path class="cls-1" d="M579.85,333.69h-4.64v-1.48h11.18v1.48h-4.72v13.93H579.9Z" transform="translate(0.04)"/><path class="cls-1" d="M591.26,345.61l1-1.2a6,6,0,0,0,4.31,2c2.11,0,3.39-1.07,3.39-2.63s-1.16-2.21-2.63-2.87l-2.23-1c-1.43-.62-3.14-1.67-3.14-3.92s2-4,4.76-4a6.25,6.25,0,0,1,4.48,1.89l-.94,1.12a4.91,4.91,0,0,0-3.54-1.48c-1.81,0-3,.91-3,2.36s1.39,2.17,2.57,2.68l2.23.94c1.79.78,3.18,1.82,3.18,4.13s-2,4.32-5.16,4.32A7.13,7.13,0,0,1,591.26,345.61Z" transform="translate(0.04)"/><path class="cls-2" d="M574.15,270.84c2.46-.08,4.14.09,4.29,2.27-1.57,2.33-2.1.9-4.05,2.11l-4,3.88a31.56,31.56,0,0,0-3.56,2.75c.09.3.07.24.25.41a14.91,14.91,0,0,0,5.9-1.95c1.54-.93,2.83-2.49,4.94-2.91a7.05,7.05,0,0,1,2.27.41c1.16,1.74-1.46,4.68-2.51,5.9l-1.3,1.06c-.37,1.29-.75,2.59-1.13,3.88l.73.16v.08c-.59,3.19-1.08,6.41-2.43,8.83a3.07,3.07,0,0,0-.24,2.75,27.3,27.3,0,0,0,12-.24c1.17-.29,2.56-.09,3.48-.65,1.53-.95,1.74-3.61,2.75-4.13l.16.81.16.08c.3-.14.49-.2.65-.48l.16-.73h.08l.33.08.48.73c.22.66-.26,1.1.08,1.7.82.21,1,1.07,1.7,1.29,1,.32,1.64-.45,2.43,0,.64,1.78,1.78,1,3.08,1.7.11.6.45.46.89.65,0,.34,0,.26-.24.57l-.49.4.08,1.13c-1.24,2.46-4.26,2.43-7.28,3l-4.21.81c-1.33.2-3-.29-4.62,0a15.8,15.8,0,0,1-4.45.24c-2.86-.4-7.21-1.36-10.28-.81-.69,1-1.55,2.85-3.07,3-1-.69-2.16-1.64-3.81-1l-.4-.24.4-2.51c-.36-2-1.87-3.71-1.29-6.07a2.44,2.44,0,0,1,1.53-.65c-.15.44-.46.5-.72.81l.16.25h.08l3.72-1.06c2-1.32,3.6-7.7,4.54-10.36.43-1.24,2.21-3.58,1.45-4.93-2.4,1-6.57,1-7.77,3.23a3.73,3.73,0,0,1-3-1c0-4,2.57-3.83,4.69-5.58a20.43,20.43,0,0,0,5.18-6,1,1,0,0,0-.24-.57c-2,.05-5-.23-6-1.29a1.63,1.63,0,0,1,.32-1.22h.08a12.62,12.62,0,0,0,8-.65ZM546,258.3c1.85.16,5.5,3.12,6.31,4.45.29.47.07.94.25,1.62s1.44,2.41.16,3.24l-.33.08-1.86-1.54a2.4,2.4,0,0,0-2.1,2.43c1.16,2.91,6.32,7.88,4.13,11.57-1.29.12-3.06.86-4.29.65-1.4-.23-3.09-1.07-4.29-.89-1.23,1-.72,4.11-.57,5.91.32,3.85,3.51,11.86.73,14.24h-.33c-1.78-2.56-.89-5.12-1.53-8.9-.22-2.08-.44-4.15-.65-6.23,0-1.41.56-4.2.4-5-.1-.54-.47-.71-.48-1.62.49-.72,2.43-2.07,3.64-1.21.6.42.76,1.24,1.46,1.62,1,.53,2.85.54,3.4-.33.37-1-2.66-5.94-3.08-7.44-.84-3.05,1-4.68,2-6.4q-1.61-3-3.23-6l.24-.24Zm22.1-7.93-.17.08c-.47,1.09,2,5.59,2.6,6.47l3.23,2.43-.08.4c-2.3.53-6,.68-7.69,1.95-1.14.85-1.29,2.7-2.1,3.88-2.37-.61-3-4.18-5.59-4.21-3,2.83,1.51,11.4,4.45,10.93,1-.15,1.37-.87,2-1.37L566,270c1.24-1.9-2.23-3.11-.48-6.07.76-1.28,7.12-1.16,9.22-1l.25.25c-.5,2-3.64,5.76-5.18,6.88l-.08.24.48.24a21.79,21.79,0,0,0,2.59-2l.65-1.05a8.65,8.65,0,0,0,1.78-1c1.35-1.08,2.53-2.84,4.29-3.48,2.16-.78,7.17-.16,7.77-2.26l-.1-1.09c.38-2.32-2-1.76-4.29-2.1-3.32-.5-5.63,1-8.09,1.94l-.33-.24c.12-1.11,1.16-1.57,1.46-3.16.57-3.12-4.92-5.62-7.85-5.74Zm-56.51,47.14c-2.12.84-10,1.26-8.66,4.62,1.1,2.31,8.22,2.95,11.41,2.18l.32-.4c-.06-1.34-2-5.26-2.75-6.32Zm-3.48-18.29c2.24.17,3.35,3.3,4.85,4.13.42.22.72,0,1,.4.73,1,1,3.7.73,5.35-.47.16-1.1.07-1.53.32a8.5,8.5,0,0,0,.4,6.23c2,.47,6.09-.63,7.85-1.13,1.12-.32,4.55,1.07,5.26,1.38l-.08.4c-.42.08-.53.11-.73.4a1.18,1.18,0,0,1-.16,1.06c-1.3.22-2-.69-3.4-.41a22.38,22.38,0,0,1-3.24,1l-.16-.24c.25-.4.6-.55.89-.89l-.08-.32h-.08c-1.24.19-4.5-.31-5.1.56-.53,1.65,4.7,7.1,4,9.07l-.25.4c-1.55.39-2.22-.93-3.72-.73-2.52.35-10-.23-11.65-1.21a2.73,2.73,0,0,1-1.3-2.83c.54-3.36,2.87-4.38,5.83-5.26,1.22-.37,3.5-.25,4.13-1.22-.38-1-.31-1.79-.65-3-.73-2.59-1.75-2.11-.08-5-.13-.79-.7-1.06-1-1.62-1-1.52-2.32-4-1.87-6.48l.25-.32Zm-18.7-5.34c2,.2,7.53,5.19,8.9,6.55l.57-.08c.81-.39.94-1.43,1.29-2.26l.49.16c0,1.56-1.25,2.87-1,3.88.28.7,1,.55,1.45,1.06a1,1,0,0,1-.56.56c-4,1.09-7.79-4.11-9.55-5.91-.78-.79-2.33-1.94-2.11-3.39l.57-.57ZM504,257l1.94.16,4.29,3.24.81,2.11c.23.43.89.82.65,1.7-.57,2.05-2.37,2.72-4.45,3.31l-.65,1.14c-.68-.35-1.9-4.33-2.19-5.34l-.32.08c.38,2.55-2,3.88-4,4.53-1.72-.9-3.76-6.24-3.07-9,2.72-2,5.35,2.31,6.88,3.73h.16l.08-.08c-.21-2.09-1-2.57-.49-5.26l.41-.33Zm15.54-.08a4.45,4.45,0,0,0-1.94,1l.08.25.16.16a8.45,8.45,0,0,0,2.51-.08c.4-.57.31-.8-.08-1.3h-.73Zm1-2.27a16.67,16.67,0,0,0-4.21,2.84c-1-.16-1.47-.72-2.67-.73h-.08a4.19,4.19,0,0,0-.65,1.54c.56.61,1.28,1.14,1.78,1.78l-1.13,3.07c-1,2.6-1.26,6-3.16,7.61l-6.47.73-.16.24c.07.3,0,.17.16.33,1,.81,3.45.14,4.94.4,4,.7,8.19-.35,11.89-.4l.09.16v.16c-2.24,1.1-4.2,2.6-6.32,3.72a9.14,9.14,0,0,0-2.26,1.22v.08l.08.16c.69.27,4.11-1.56,4.93-2a68.87,68.87,0,0,1,9.64-4.13c.61-.22,1.41.27,2.18,0s.9-1.41,1.7-1.78c.16-.13.11-.11.41-.16a.78.78,0,0,1,.08.4l.32.16c.35-.26.83-.94.65-1.45s-.76-.09-1.22-.41-.48-1-1.05-1.13c-1.27-.4-2.76.63-3.64.89-3,.88-6.22,1.11-9.39,1.94-1.09.29-3.63.87-4.61.41l1.29-2.51c1-2.45,1.09-5.34,2.43-7.37,4.52.82,6.68-.92,5.67-5.42a1.72,1.72,0,0,0-1.22-.33ZM433.21,283.8c-.72,1.1-3.13,3.49-3.24,4.61,1.2,2,3.68,3,4.94,5.1h.24l.08-.16c-.54-2.77-1.2-5-1.86-7.45-.23-.85.28-1.59.08-2.1Zm16.27-18.29c2.93.1,4.59,1.72,6.07,3.31,0,.49-.05,1-.08,1.46-.39.7-1.55.33-2.1,0-1-.61-4.08-3-4.21-4.37Zm11.41-3.16c1.85-.05,5.47.28,6.07,1.54l.81,3.4c-.93.83-2.24-.63-2.91,0-.38.64-.76,1.29-1.13,1.94-1.9,2.38-3.83,2.85-5.1,6.15-.28.72-2,2.42-1.54,2.75.67.49,4.36-.31,5.18-.48,4.81-1,9.16-2.08,13.76-3,1-.2,4.55-1.17,4.86-1a.92.92,0,0,1,.32.33c-.08.53-.39,1.06-.16,1.61s.75.81,1,1.38c-.64,1-1.16.58-2.59.89-2,.43-4.1.45-6,1.13-.61.22-1,.84-1.78,1-1.11.18-3.08-.46-3.72.4l2.83,3.24c1.83,3.2,4.24,12.54,2,16.43a2.87,2.87,0,0,0-2,1.05,15.56,15.56,0,0,1-1.62-.57,31.45,31.45,0,0,1-1.21-4.77c-.06-1.81-.11-3.62-.17-5.42-.4-1.91-1.15-3.83-1.53-5.43s.15-3.09-.57-4.21c-1,.06-5.26,1.14-6,.89-.58-.29-.53-.94-1-1.29l-.33.24c-.12.84-3.29,2.59-4.29,1.05-.74-1.15.24-3-.4-4h-.08a21.74,21.74,0,0,0-5.67,1.78v.08a128.6,128.6,0,0,0,2.75,16.43c.32,1.3,1.94,4.39,1.38,6l-.65.73c-2.28-.15-4-6.39-4.37-8.91h-.4a3.92,3.92,0,0,1-1.14,2.11c-.36.13-.47,0-.64-.32.24-.55,0-.95.08-1.54l1.29-2a16.51,16.51,0,0,0-1.21-5.18,1,1,0,0,0-.57.25q-.72,2.91-1.46,5.82c-.29,1.69.3,2.62.49,3.73,0,.12-.63,3.38-.73,3.56l-.73.08c-.82-.55-2.34-3.68-2-5.26.69-3.46,2.22-10.41,4.21-12.38,2.82.34,2,9.09,3.88,10v-.4c-1.12-3.83-.79-8-1.61-12.47l-.33-.16c-1.7.15-2.59,1.05-3.88,1.46l-1.54.24c-1,.42-4.33,2.59-4.78,3.48-.92,1.8,0,4.24.57,5.83l.81,4.86c.34,1.52,1.76,4.13.73,5.74h-.49c-1.63-.84-2-2.8-2.75-4.53a9.66,9.66,0,0,0-6.88-5.91c-.39-.53-1.18-2-.65-3.08l2-2.1a48.38,48.38,0,0,0,4.45-6.64l-.16-.24c-1.79.25-4.93,1.81-6.64.49-1.2-.93-.5-2.86,0-4a26.52,26.52,0,0,1,2.59-3.8c.92-1.38,1.5-3,2.67-4.13h.4l.17.16c0,3.08-1.53,5.23-2.84,7.12-.66.95-1.78,1.6-2.1,2.92l.24.24c1.86,0,5.8-1.38,6.88-1,.5.24.71.74,1,1.13,0,1.74-.83,2-1,3.48H435c1.55-.78,3.14-2.15,4.86-2.91,2-.87,4.16-.91,5.91-1.95-.17-2.64-2.21-6.16-1.62-8.66a1.27,1.27,0,0,1,.81-.32c.59.33,1.8,1.34,1.54,2.43-.09.35-.44.57-.33,1.21s.93,4.48,1.38,4.78a28.31,28.31,0,0,0,6.31-1.3v-.32c-1.07-.76-2.84-.79-3.48-2,.81-1,2.7.35,3.73.56l.89-.16c.59.17.62,1.15,1.78.89s6.31-5.71,6.39-7.2c-.64-.93-3.2-2.71-2.43-4Zm-79.58-4.49c2.9.24,4.11,1,6.23,2a17.32,17.32,0,0,1,2.18.81c.39,1.42,1.56,4.05.33,5.35l-2.35,1.13a19.54,19.54,0,0,0-2.59,3.48.64.64,0,0,1,.49.32l-.25.33h-.14c-.32-.18-.29-.14-.24-.49l-.08-.08c-.89.64-4.86,7.46-5.26,8.74h.08l.16-.08c.48-1.1,1.61-1.53,2.27-2.43.41-.56.41-1.36,1-1.78l1.54-1.21.4-.89h.13c.43-.19.61.25,1.06.16l1.86-1c3-1,6.47.2,7.36,2.59.72,1.92-1.39,3.27-2,4.21a15,15,0,0,0-1.62,5.26l.24.24c2.06.24,4.29-.22,5.18-1.45,2.15.23,6,.33,6.56,2.34l-.08,1.38q.27.63.48,1.29l.73.25-.08.4c-.4,0-.37,0-.56.24,1.51,4.32,8.34,7.86,13,9.23l1.78-.08a9.45,9.45,0,0,1,2.75,1.13c0,1.12,0,1.26.48,1.87-.38,2.08-.12,2.31-1.94,3.15l.25.89-1.22,1.62c-1.33.71-6.76-.39-8.42-.81-7.88-2-11.2-7.86-15.7-13.19-.29.05-.25,0-.4.16-1.49.68-2.3,2.67-3.73,3.32-.76.34-.95-.41-1.62-.32-.86.11-2,.39-3.07.48l-.33-.4c-.16-.41,0-.46-.4-.73a1.39,1.39,0,0,1-1.3-.08c-.39-2.29-.16-8.24-1.13-9.8h-.13a33.34,33.34,0,0,0-6.64,5.43c-.95,1.32-1.06,3-2.51,3.8-1.95,1.08-5,.69-5.83-1.29l-.32-2.6-.32-.16a2.52,2.52,0,0,1-1.95-.32l.09-.24,1-.33v-.16l-.08-.16a1.15,1.15,0,0,1-1.14-.41c.13-.2.1-.19.33-.32a6,6,0,0,0,1.37-.4v-.33l-1.29-2h-.33a1.38,1.38,0,0,1-.72.56l-.25-.32c-.61-2,2.85-2.43,4.29-2.59a7.13,7.13,0,0,1,2-2.43c-.15-.66-.24-.66.08-1.13l1.53-.32c1-.59,4.82-8.16,5.43-9.72-1.23-2.44-4.86-3-6.07-5.34-.08-.46-.16-.92-.25-1.38-.5-2.06-.32-2.4,1.3-3.31a2.57,2.57,0,0,1,1.94-.41c.79.18,1.06.77,1.94.89,1.55-.78,2.85-1.71,4.46-2.59Zm-36.59,2.83.65.08c.95.92,3,5.36,3.4,5.58l.32.08c1-1,4.39-2,6.07-1.05.14.9.59,1,1,1.62l-.89,1.05c.43.95.85,1.71.25,2.75-.84.16-1.46-.09-2.19.17l-.57.64a8.46,8.46,0,0,1-1.7.49l-1.21-.41a11.71,11.71,0,0,0-4.13,1.87,68.49,68.49,0,0,1-.4,11.09l.32,1a14.69,14.69,0,0,1-.32,3.8,3.61,3.61,0,0,0,.24,1.78l-.24,1.3a17.86,17.86,0,0,1,.24,4c-.4,2.65,1,8.18-.81,9.56l-.24-.08c-.18-.3-.2-.7-.41-1.06L343,304l-.16-.89c-.27-.44-.94-.4-1.14-1-.51-1.49,0-3.93-.24-5.67-.05-.86-.11-1.72-.16-2.59l-.57-1.37V279c.17-1.12.35-3.58-.08-4.53l-.16-.08-2.51.56c-.26-.06-.48-.47-1-.32-.21.06-.18.44-.65.32-.24-.06-.25-.4-.81-.32a43.45,43.45,0,0,0-5.18,1.13c-1.15.34-2.83.3-3.32,1.3l-.08,1.45-.32.17-.65-.41c-1.39.83-6.17,8.08-6.55,9.88-.49,2.27,2.15,4.24,1.61,5.82l-.16.33-.65.08c-.14.7-.06,2.49-.8,2.35-1,.64-1,1.89-2.51,2.1-3.38-2.29-3.52-5.34-4.37-10.12a6.8,6.8,0,0,1-1.7-.81v-.32l.24-.16c.51-.3.91.1,1.46,0v-.33a4.14,4.14,0,0,1-1.7-1.37c.6-.95,2.25-.77,2.91-1.7,1.1-1.57,1.57-7.34.48-9.15-2.66-.76-6.08-2.54-7.52-4.45v-.08c1.13-1.12,8.62-1.57,10.84-1.05a4.26,4.26,0,0,1,2,1.21l-.33,1.54c.41.89,1.3,1.32,1.54,2.51l-.32.4a6.84,6.84,0,0,0-2.11.33l-.16.24c.19,1.09,0,2.88.32,4.21l.49-.16c1.62-4.28,3.05-7.69,6.72-10.2l.65.24.64,1.3c2.11.4,3.92-.7,5.27-1.14l4.37-1c1.12-.28,2.93-.06,3.8-.65.69-.47,1.55-2.61,2.51-3.4l.32.25c.42-.21.5-.25.49-.89l-.51-.38a6.68,6.68,0,0,1,1.54-3Zm-30-.49-.49.57-.08.24a16.11,16.11,0,0,0,2.59,2.43c1.42,1.35,1.72,3,4.13,3.48a2.5,2.5,0,0,0,1.05-.73l-.71-1.5.48-.73a9.8,9.8,0,0,0-7-3.72Zm-40.66,25.25c-.1,3.52-.18,13.15,4,10.61V296l-.32-1c.8-1,2.36-2.84,2.59-4.21-2.14-1.47-4.81-2.87-5.91-5.34ZM257.62,269c3.86.25,8.94.52,10.77,3.08l-.49,1.7c-.84,1.52-2.37,1.44-.64,3.64-.11.31,0,.17-.25.32l-1.21-.16-.49.57c-.26.16-.61,0-.89.16a23.18,23.18,0,0,0,.65,5.18l.41.08q1.22-3.07,2.42-6.15c.8-2.26,1-4.46,2.11-6.31l.4.08a16.67,16.67,0,0,1-.64,5.66l-.57.73c-.12.39.12,1.76-.08,2.59l-1.05,3.64c-.08,1.14-.17,2.27-.25,3.4l-.48,1.22c-.11,1.32.86,2.68,1.13,3.56-.05.51-.11,1-.16,1.54l1.05,6.47c-.3,1.25-1.51,1-2.1,1.86s-.71,2-1.22,2.76h-1.21c-.27.56-.56,1.1-1.3,1.21-1.14-1-2.47-1.91-3.07-3.4-.78-1.91-.29-4.74-1.3-6.47-1.61-.28-.07-1.46.08-2l-.08-2.18c.45-2.31-.08-5.78-.48-8.1-.16-1.86-.33-3.72-.49-5.58L258,278H256c-1.59-.39-6-3-5.67-4.78.15-.61.61-.74.81-1.21a8.69,8.69,0,0,0,.32-1.7c.94-.44,2.61.34,3.16,0l.65-.81,2.34-.49ZM276.21,263c1.9,0,3.88,2.67,3.32,4.37-.13.43-.26.43-.57.65-.62-.2-.71.06-1.37.16C277,267.29,275.71,263.72,276.21,263ZM263,260.77c-.52.41-1,.64-1.3,1.3l-.08.73c1.41,1.6,5.47,6.2,7.77,6.23a9.53,9.53,0,0,0,2.67-4.21c-.26-.68-.48-1.79-1.05-2.18-1.29-.89-6-1.86-8-1.87Zm19.83-2.91c1.5,0,6.16.1,7,.73v.32c-.55.62-1.57,1-2,1.62-.8,1.16-2.33,5.39-1.46,6.56,1.45.27,4.87.33,5.75,1.21l-.08.65-6.85,3.74L282.78,275c-.81.64-2.1,1.28-2.27,2.51l.24.24a18.73,18.73,0,0,0,6.16.16c2.11-.37,5.91-1.32,7.93-.16v.08l-.16.41a2.25,2.25,0,0,0-1.7,1.05l.4.81c-.5.82-1.6.66-2.35,1.21s-3.06,4-3.15,4.86c2.47,1.68,6.08,2.06,9.31,3.08.68.21,1.28.87,1.86,1.05s.67-.25,1.05.24a1.9,1.9,0,0,1,.32,1.78l-.72.33a.73.73,0,0,1-.09.64c-1.33.24-2.2,1.7-3.56,1.7-2.95,0-8.88-3.88-11.81-2.75-.87.47-1,1.77-1.54,2.59-.71,1.07-4.84,4.54-6.72,4.21-4.67-.83-2.35-11.4-3.24-15.54l-1-1.3.24-.56c1,0,1.82-.65,2.92-.33,1.52.45,3.61.63,5.34,1.14,1.53.44,3.25,1.48,4.77,2.1a6.34,6.34,0,0,0,2-2.91l-.24-.25c-2.66.06-10.71.6-9.48-2.91.53-1.5,2.18-2.08,3.08-3.24l-.81-1.13c-.48-1.75,1-5.4,1.86-5.91a.58.58,0,0,1,.25.24h.08a13.22,13.22,0,0,0,.32,5.35h.32c1.3-1.23,3.28-2.26,4.13-3.89-.92-.79-2.48-.76-3.32-1.62,0-2.6,2.69-7,1.7-8.5-1.13-.18-3-.55-2.1-1.86Zm-57.59,39.61c-.85.51-1.69.75-2.19,1.62l.24.48h.09c1.38,0,1.61-.89,2.26-1.62v-.32l-.16-.16Zm3.24-39.91c3.53-.07,6,2.41,7.85,4.21.69.7,2,1.56,1.37,3.08-1.1,2.58-10.39,1.31-9.87-1.22.77-1.46,4.78.27,6.47-.48l.08-.16c-1.14-2.6-6.07-6.34-7.2-1.14-.79,3.64.19,9.23.89,12.55l.24,3.56a6.73,6.73,0,0,1-.16,3.8c.13.21.1.2.33.33a8.86,8.86,0,0,0,4,.08c.68-.22,1-1,1.78-1.22,1.59-.34,3.71.5,4.86.89a3.54,3.54,0,0,1,.16,2.11l-.16.32c-1.2.34-3,.15-4.45.41l-.08.24c-.49,1.19.79,3.31,1.21,4.13a55,55,0,0,0,4.37,7.69c.65.88,2.15,1.94,1.7,3.8-.35,1.46-1.46.2-2.18.08l-2.84.33c-2.64.55-5.32.74-8.25,1.21-1.91.31-4.35-.71-5.67-.4a20.35,20.35,0,0,0-3.32,1.53l-.32-.32.32-.4a7.53,7.53,0,0,0,2-1.06v-.32c-.9-.5-1.79-.81-1.78-2.27,2.31-1.77,3.89-3.62,7.45-4.29,1.75-.33,3.62,0,3.81,1.38l-1,1.7c-.92.66-4,.82-3.88,2.19,3.39-.1,10.5-.33,12.3-2.11-.21-1.17-1.23-2-1.78-2.91a39.64,39.64,0,0,1-3.07-6.15c-.42-1.06-.48-3.48-1.38-4.05l-3.89-.08c-2.66-.42-9.56-.28-10.6-2a6.71,6.71,0,0,1,1.94-2.91c1.87.14,4.48.74,5.35-1.13a13.55,13.55,0,0,0-.09-5.27c-.57-3.53-.84-10,.25-13,.61-1.66,1.94-1.78,3.24-2.75ZM196,290.69c.21,1.24.43,2.48.65,3.72.16.17,0,.09.32.16.55-1.15-.36-2.69-.57-3.88Zm-20.56-19.8c-3.06,2.26-5,3.92-3.48,8.82.36,1.19.21,1.64,1,2.27l.32-.25c0-3.24,1.54-4.47,2.11-7,.18-.84.8-3.22.16-3.72l-.16-.08Zm2.75-5.59a1.15,1.15,0,0,1,.65.17c1.39,5.47-.48,13-2.67,16.26l1.86,3.89c1.87,2.87,4.28,4.47.24,7.45-1.76-.1-3.15-2.33-4.29-3.24-4.09-3.3-8.75-11.56-4.69-18,2-3.21,6.12-4.1,8.9-6.56Zm13.6-2c-.5,0-.43.06-.73-.16v-.25l1-.89c2.15,0,3.59,2.31,4.54,3.65a1.5,1.5,0,0,1,1.05.24V266c-.17.4-.33.35-.41.89.48.2.84.34,1.06.81.2.88.36,1.79.48,2.67-1.93,1.92-5.24.23-7.61.81-1.19,3.17-1.45,7-2.35,10.44-.21.82-.9,3-.48,3.65.11.15,0,0,.16.16a6.48,6.48,0,0,0,3.4.4l.08-.24a5.24,5.24,0,0,0-.32-2.51c-.21-1.06.74-7.26,1.05-7.45,1.91.62,3.54,7.95,5.18,9.64,1.14,0,3.63-.42,4.13-1.14-.66-.81-1.66-1.29-2.35-2.1l.16-.25h.08l3.65,1.7c1.88.33,4.63-2.7,5.66-.56.13.71-.49.9-.56,1.54,0,.44.32.68.24,1-.82,1.73-6.82,2.27-8.74,2.67-.79.16-.62-.44-1.3-.08,0,2.72.93,5.08,1.46,7.61.19.93-.42,2-.57,2.67-.38,1.8-.21,3.59-2.1,3.8-.93.11-2.07-1.69-2.43-2.34a14.62,14.62,0,0,1-1.86-3.57l-.57-6.23c-.35-1-1.29-1.18-1.86-1.94l-1.13.4a4.69,4.69,0,0,0-.73-.81l-.41-.08-.08.08c.26.71-.1.77-.48,1.22l.08.32a1.81,1.81,0,0,1,1.29.16v.25a29.64,29.64,0,0,0-2.67,1.7,2.59,2.59,0,0,1-1.29-.41c-.4-1.72-2-3.19-2.51-4.69-.68-2.07,1.27-3.7,1.62-4.86.26-.91-.47-1.28-.25-2.35.19-.86.79-.82,1.06-1.37A12.91,12.91,0,0,0,186,275v-1.78c.28-.83,1.62-1.91,1.14-3.32-.51-1.09-1.89-1.29-2.84-2a6.29,6.29,0,0,1-1.53-2.18l.24-.49c1.22.08,7.09.91,7.69.17.13-.3.11-.53.32-.73.33.19.4.31.81.24l.08-.24a2.7,2.7,0,0,1-.16-1.46ZM123.65,286c-.9.81-4.23,3.39-3.72,5,.64,1.24,3.33.69,4.13.09a12.45,12.45,0,0,0,0-4.94l-.41-.16Zm-2.19-7.28-.32.49c.41,1.15,1.63,2.77,3,2.91l.32-.49V280c-.27-.5-2.39-1.21-3-1.3Zm24-2c-.88.9-1,2.25-2,3.07-.41-.09-.68-.28-1-.16-2.24,1.07-4.12,3.63-5.91,5.26l.08.41c2,.72,6.6.69,8.1-.41,1-.73,1.2-2.58,2.18-3.4.81-.66,2,0,2.75-.32l.08-.16c-.87-2-2.35-2.91-3.8-4.29Zm3.08-1.7.24.08.33,1.37v.09a1,1,0,0,1-1,.16l-1.06-.65-.24-.32c.35-.5,1.15-.45,1.7-.73Zm-.57-6.32c-1.4.84-3.48,1.16-4.45,2.43v.08c.85,1.14,1.57.39,2.92.57a9,9,0,0,0,2,.32l.16-.16a7.27,7.27,0,0,0-.32-3.24Zm-7.93-.4-1.62.16c-.33.27-.34.5-.48,1a2.92,2.92,0,0,0,3.72,1v-.08a5.6,5.6,0,0,0-.73-2.1Zm6.23-.65.65.08h.16c-.13.5-3.14,2.22-3.72,2-.35-.23-.44-.79-.49-1.3l.09-.24c.84-.47,2.32-.19,3.31-.57ZM139.64,262c-.25,1.32-1.54,3.53-1,4.85l.16.08a6.25,6.25,0,0,0,1.86-.4c-.22-1.51-.43-3-.65-4.53Zm6.72-7.21,1.29.25a19.47,19.47,0,0,1,2.27,6.63c.24,1.24.06,2.78.64,3.65a5.12,5.12,0,0,1,3.08.72l.08.57c-1.18,1.75-1.7.54-3.32,1.46-.6,3.23.67,7.13,1.14,9.71l-.09,2.43-.89.81c.09.31,0,.24.25.4,1,.49,2.35.16,2.83,1.22.42,2.34-5.81,3.83-7.2,4.53-.43,1.35-.32,6.79.56,7.37l3.56-.09c3.1-.5,6.17-.3,8.18,1.06.6.4,1.95,1.08,1.62,2.1-1,2-3.6.14-5,1l-1.46,1.78a45.62,45.62,0,0,1-5.18,4.54c-.44.33-2.19,1.93-2.51,1,2.72-2.3,6-4.51,7.61-7.85-.28-1.42-5.45-.75-6.31-.16.21,2.66-.2,4.09-1.7,5.42a4,4,0,0,1-1.78-.33,5,5,0,0,1-.24-1.21c-1.54-.7-7-1.65-5-4.45,1-1.48,4.59-.84,5.42-2.43,0-2.37.11-4.75.16-7.12l-.32-.33c-1.51.37-3,.41-4.7.65l-3.07-.08a8,8,0,0,1-3.4.32l-.41-.48a5.13,5.13,0,0,1,1-3.16l2.27-1.29c1.54-1.07,2.83-2.59,4.29-3.73,1.3-1,3.41-2.07,1.78-4.53-4.09.06-2.08-2.56-3.16-4.29-.41-.17-.54-.28-1-.08a14.34,14.34,0,0,1-5.1,9c-1.54,1.19-4.54,2.36-5.34,4.21-.91,2.13.45,6,0,8.34l-.48.41c-2.59,1.09-7.74,0-9.8-1-.69-.33-2.15-.59-1.86-1.86.5-2.17,4.29-4,5.59-5.58l-.09-.16c-.58-.89-1.84-1.46-2.5-2.35-1.06-1.42-3.93-7.75-2.43-10.36,2.77-.49,7.23,4.49,9.39,5.58.47.24,1.37-.11,2.1.33.26.84.35,1.77.57,2.75H128c3.5-2.82,7-4.81,7.69-10.44l-.57-.49c-1.31-.68-3,.9-4.29-.08-.37-.18-.47-.44-.72-.73,0-.78.2-1.14.72-1.37,1.85-.94,3.51.93,5.27,0,.67-3.29,1.4-7.6,3-10,.54-.15,1.75-.85,2.35-.49.83.51.16,2.39.16,3.48,0,2.11.21,5.2,1.13,6.56,1.66-.12,4.36-.12,5.67-.81.53-2.69-.67-7.1-2-8.42-.5-.48-1-.19-1.54-.81.17-1,.79-1.24,1.54-1.7ZM87.14,293.59c-2.36,1-7.41.53-8.42,2.59-.81,1.46.8,3.15,1.54,3.72a15.08,15.08,0,0,0,12.62,2.35c1-.28,1.65-.27,2.11-1.05-.51-1.63-2.12-6.78-3.32-7.37l-4.53-.24Zm1.54-15.9c2.86.8,5.32,1.48,5.66,4.77.08.73.32.86-.08,1.46-1.08.17-1.45,1-2,1.62-.08,2.74.93,4.83,3.64,4.21l1.62-.41c.26-.23.2-.73.48-1,.39.23.54.69.89.89l1.06.08,1.62,1.78v.73c-.92,1.18-2.41,1.63-4.21,1.94-.85.15-1.63-.05-2.19.25,0,3.54,5.36,7.05,4.21,10a3.39,3.39,0,0,1-2.67,1.3c-2.21-3.07-4.5-.7-8.42-1.38-4.15-.72-7.77-1.24-10-3.8-.74-.84-2.85-2.65-2.1-4.29,1.06-2.41,7.06-3.74,10.12-4.45,1.55-.37,3.11-.29,4.21-1.06L90,287.18c-.19-1.35.94-2.6.4-3.89s-3.19-2.84-2.34-5.1c.19-.39.36-.36.73-.56Zm-17.25-8.18-.32.41c-.42,1.2.87,3.23,1.38,4,2.25,3.23,2,5,7.52,4.86l.17-.24c0-.31-.13-.36-.25-.73l1.3-1.06-.49-.8c-.48-1.36-.7-2.41-1.78-3.08l-1.37-.32c-1.9-.91-3.91-2.55-6.16-3Zm12-9.06c2.09,0,5.56,2.52,7,3.56.56.41.74,1.32,1.29,1.7,2,.8,9.81-1.57,11.33-2.11.81-.28,3.24-.31,3.64.33.2.21.24.37.25.81-2.16,4.23-7.54,3.18-11.66,5.26-1.15.58-3.35,2.23-4.69,2v-.32L94.31,269c-.1-.25,0-.1-.16-.25l-4.29-.56c-.63.13-.85.94-1.78.72-1.76-.39-4.94-5.72-5.1-7.93l.48-.56ZM12.17,294.26c-3,2.45-7.89,3.5-8.5,8.26,1.46,2.22,6.78,8.25,10.85,5.67,1.68-1.07,2.85-3.56,3.64-5.51l-.24-.32c-1.52,0-3.67-.65-4.54-.33.1.44.17.45,0,.81a1.34,1.34,0,0,0-1.05.17,1.54,1.54,0,0,1-.56,1h-.33c-1-1.58-1.78-5.06-.48-7.37.44-.79,1.19-1.26,1.45-2.35Zm12.38-3c-.51.86-1.41,9-1.21,9.23,1.84-.36,4-.19,6.07-.57l.41-.41C29.88,296.59,26.82,291.51,24.55,291.26Zm-5.18-1.46a2,2,0,0,1,1.78.89c.39,2.21-1.59,8.82-2.59,10.2-1.7.33-4.19,0-5.09-.81-.07-2.46,4.26-8.91,5.9-10.28Zm31.25-14.24-.33.4a7.44,7.44,0,0,0,1,1.94,4.13,4.13,0,0,0,1.21-1.54,2.77,2.77,0,0,0-1.86-.8ZM17,267.14,9.8,271.69c0,.29,0,.25.16.4,2.35-.83,5.49-.7,7.61-1.86a5.93,5.93,0,0,0-.24-3.07Zm29.7-2.67c-1.48.52-2.68-.05-3.4,1.21l.16.24.57.25-.24.32c-1.36.28-1.78,3.43-2.27,4.61A18.08,18.08,0,0,1,36.78,278l-2.57,2.32c1.51,2.94,4,3.3,7.93,4,.65.11,1.45.6,2.19.32.55-.25,3.27-5,3.15-5.59-.63-1.14-3.13-.69-4-1.69-4-4.8,2.21-8.34,4.2-10.93l-.08-.25-2.34.09v-.33l.16-.16,3.64-.4c.23-.29.38-.28.49-.73h-.17l-2.83-.08Zm-24.44-.84c-.9.69-1.74.93-2.27,2,.11.74.08,3.34.65,3.72a17.49,17.49,0,0,0,5.58-1.54v-.08c-.9-1-2.78-3.74-4-4.12Zm-11.5-10c2.07.18,3.74,2.19,5.35,3.07l.4-.16a1.55,1.55,0,0,1,1.05-1.29c1.61-.67,3.93,2.51,4.53,3.4,2.46,0,3,.16,4.13,1.7.3.39.7.07.89.64l-.08.17c-1.12.13-2.75.69-3,1.7,1.42,1.06,2.46,2.75,4,3.64l2.76.73.73,1.13a1.07,1.07,0,0,1,1.48.32l0,.09v.56c-2.29,1.09-9.7,1.51-10.68,3.4.13.52.55.87.32,1.46l-1.45,1.7a8.65,8.65,0,0,0,.56,5h.08c1.29-.48,3.39-1.85,4.86-.81l.08.56a5.64,5.64,0,0,1-1.54,2.19c-.62.46-3.86,1-2.34,2.43,1.3-.52,6.46-3.79,7.2-4.78-.06-.74-.36-1-.24-1.78l.24-.32c.91.08,1,.53,2.1.56,3.48-1.83,7.52-7.74,8.34-12.22-.87-1-3.18-2.13-1.94-4.13,1.32-.36,1.33-2.17,2.43-2.75a26.32,26.32,0,0,0,6.39,1.38c4.71.71,7.93-1.56,11.58.73,0,.73.24.73.4,1.37-.92.93-2.21.91-3.48,1.54v.65a2,2,0,0,1-2.19-.33c-2.24.45-8.3,3.22-7.12,6.16.61,1.15,8.9,1.3,9.71,3,1.42,2.93-2.93,8.1-4,10.28-.24.46-.74,1-.57,1.62s5.79,3.33,6.8,3.64c1.22.38,3.36.42,3.89,1.46.71,1.23-1.93,5.59-2.59,5.91-1.28.31-2.62-.56-3.57-.81l-2.1-.16-.65-.81H52.06a46.08,46.08,0,0,0-4.61-1.38c-1.64.86-1.16,2.27-2,2.83-.45.3-1.09.13-1.54.41a3.08,3.08,0,0,1-.16,1c-1-.09-1,.35-1.86.49l-2.35-2.51-1.13-.65-.33-1.22c-1-1.47-3.21-2.29-3.88-4.29l.24-.4c1.62.26,3.45,1.42,5.26.89v-.32c-3.06-2.11-7.38-3.66-8.58-7.61H30.8c-1.55,1.38-6.06,3.36-7,4.77L25,288.94a9.52,9.52,0,0,0,.73,1.78c2.31,3,3.85,3.58,5.26,7.93.3.94,1.72,2.13,1.38,3.32l-.17.33c-2.95.83-6.78-.55-9.63.08-1.67,2.81-3.2,8.86-6.39,9.87-1.74.55-2.17-1.09-3.56-.89-1.11.16-2.93-1.19-4-1.62C5.34,308.41.69,306.59,0,302.86c-.22-1.12,2.41-3.75,3.07-4.29a61.26,61.26,0,0,1,6.24-5c2.15-1.32,4.79-2.17,6.23-4.21.65-.91,3-3.47,2.35-5.18l-.17-.24a42.3,42.3,0,0,0-9.87,1.54c-1,.26-2.81,1.06-4,.57l-.4-.33c.06-.41.1-.55.4-.73s.52.31,1,.25l2.59-.89,6.8-1.86c1.11-.27,3.59-.21,4.13-1.06.38-.9,0-4.84-.32-5.5l-.16-.08a72.15,72.15,0,0,0-6.64,4c-1,.61-2.28.6-2.92,1.61-.35-.06-.3,0-.48-.24l.24-.32c1-.19.7-1.41,1.38-1.86,1.76-1.18,3.24-2.55,4.94-3.73.78-.54,2.1-1,2.59-1.86l-.09-.16c-3.14.12-6.49,1.24-9.14,1.78-1.27.26-2.79.08-2.92-.89-.23-1.75,2.23-2.33,3.24-3l6.64-5c.78-.53,2.37-1.15,2.67-2.11.85-2.74-1.91-2.91-3.16-3.64-1.77-1-4.22-3.79-3.72-6.72Z" transform="translate(0.04)"/><path class="cls-1" d="M381.11,0H220.64a20.08,20.08,0,0,0-20.06,20.06V180.53a20.08,20.08,0,0,0,20.06,20.06H381.11a20.08,20.08,0,0,0,20.1-20.06h0V20.06A20.08,20.08,0,0,0,381.11,0Zm10,180.53a10,10,0,0,1-10,10H220.64a10,10,0,0,1-10-10V20.06a10,10,0,0,1,10-10H381.11a10,10,0,0,1,10,10Z" transform="translate(0.04)"/><rect class="cls-1" x="220.68" y="20.06" width="10.03" height="30.09"/><rect class="cls-1" x="260.8" y="20.06" width="10.03" height="30.09"/><rect class="cls-1" x="220.68" y="150.44" width="10.03" height="30.09"/><rect class="cls-1" x="260.8" y="150.44" width="10.03" height="30.09"/><polygon class="cls-1" points="250.77 60.18 250.77 20.06 240.74 20.06 240.74 60.18 220.68 60.18 220.68 70.21 270.83 70.21 270.83 60.18 250.77 60.18"/><rect class="cls-1" x="220.68" y="130.39" width="50.15" height="10.03"/><rect class="cls-1" x="371.12" y="150.44" width="10.03" height="30.09"/><rect class="cls-1" x="331" y="150.44" width="10.03" height="30.09"/><rect class="cls-1" x="371.12" y="20.06" width="10.03" height="30.09"/><rect class="cls-1" x="331" y="20.06" width="10.03" height="30.09"/><polygon class="cls-1" points="331 130.39 331 140.42 351.06 140.42 351.06 180.53 361.09 180.53 361.09 140.42 381.15 140.42 381.15 130.39 331 130.39"/><rect class="cls-1" x="331" y="60.18" width="50.15" height="10.03"/><path class="cls-1" d="M320.93,20.06a40.12,40.12,0,0,0-40.12,40.12v80.23h20.06v-10h-10V60.21h0A30.13,30.13,0,0,1,321,30.12h0v-10Z" transform="translate(0.04)"/><path class="cls-1" d="M280.81,180.53a40.12,40.12,0,0,0,40.12-40.12V60.18H300.87v10h10v70.2h0a30.13,30.13,0,0,1-30.09,30.09h0v10Z" transform="translate(0.04)"/><path class="cls-1" d="M245.71,80.24a25.06,25.06,0,0,0-25.07,25.05v15h10v-15a15,15,0,0,1,30.09,0h0v15h10v-15A25.05,25.05,0,0,0,245.71,80.24Z" transform="translate(0.04)"/><path class="cls-1" d="M356,120.35a25.06,25.06,0,0,0,25.08-25.06h0v-15h-10v15a15,15,0,1,1-30.09,0v-15H331v15A25.07,25.07,0,0,0,356,120.35Z" transform="translate(0.04)"/></svg>